<svg xmlns="http://www.w3.org/2000/svg" width="175" height="77" viewBox="0 0 175 77">
    <defs>
        <filter id="prefix__a" width="114.4%" height="135.8%" x="-7.2%" y="-17.9%" filterUnits="objectBoundingBox">
            <feOffset dy="2" in="SourceAlpha" result="shadowOffsetOuter1"/>
            <feGaussianBlur in="shadowOffsetOuter1" result="shadowBlurOuter1" stdDeviation="2"/>
            <feColorMatrix in="shadowBlurOuter1" result="shadowMatrixOuter1" values="0 0 0 0 1 0 0 0 0 1 0 0 0 0 1 0 0 0 0.5 0"/>
            <feMerge>
                <feMergeNode in="shadowMatrixOuter1"/>
                <feMergeNode in="SourceGraphic"/>
            </feMerge>
        </filter>
    </defs>
    <g fill="#0989D2" fill-rule="evenodd" filter="url(#prefix__a)" transform="rotate(1 -54.71 296.672)">
        <path d="M11.351 45.629L8.426 50.98c-.185.337-.535.568-.94.619l-6.412.798c-1.016.127-1.435 1.28-.708 1.951l4.583 4.235c.29.266.418.647.345 1.02l-1.162 5.902c-.185.936.868 1.661 1.782 1.227L11.672 64c.363-.173.793-.168 1.152.011l5.694 2.85c.902.452 1.972-.253 1.81-1.193l-1.025-5.925c-.065-.372.072-.75.368-1.011l4.68-4.142c.743-.657.351-1.818-.662-1.965l-6.393-.927c-.403-.058-.748-.296-.924-.637l-2.801-5.409c-.444-.858-1.755-.87-2.22-.022M36.351 11.629l-2.925 5.352c-.185.337-.535.568-.94.619l-6.412.798c-1.016.127-1.435 1.28-.708 1.951l4.583 4.235c.29.266.418.647.345 1.02l-1.162 5.902c-.185.936.868 1.661 1.782 1.227L36.672 30c.363-.173.793-.168 1.152.011l5.694 2.85c.902.452 1.972-.253 1.81-1.193l-1.025-5.925c-.065-.372.072-.75.368-1.011l4.68-4.142c.743-.657.351-1.818-.662-1.965l-6.393-.927c-.403-.058-.748-.296-.924-.637l-2.801-5.409c-.444-.858-1.755-.87-2.22-.022M78.351.629L75.426 5.98c-.185.337-.535.568-.94.619l-6.412.798c-1.016.127-1.435 1.28-.708 1.951l4.583 4.235c.29.266.418.647.345 1.02l-1.162 5.902c-.185.936.868 1.661 1.782 1.227L78.672 19c.363-.173.793-.168 1.152.011l5.694 2.85c.902.452 1.972-.253 1.81-1.193l-1.025-5.925c-.065-.372.072-.75.368-1.011l4.68-4.142c.743-.657.351-1.818-.662-1.965l-6.393-.927c-.403-.058-.748-.296-.924-.637L80.571.651c-.444-.858-1.755-.87-2.22-.022M120.351 11.629l-2.925 5.352c-.185.337-.535.568-.94.619l-6.412.798c-1.016.127-1.435 1.28-.708 1.951l4.583 4.235c.29.266.418.647.345 1.02l-1.162 5.902c-.185.936.868 1.661 1.782 1.227L120.672 30c.363-.173.793-.168 1.152.011l5.694 2.85c.902.452 1.972-.253 1.81-1.193l-1.025-5.925c-.065-.372.072-.75.368-1.011l4.68-4.142c.743-.657.351-1.818-.662-1.965l-6.393-.927c-.403-.058-.748-.296-.924-.637l-2.801-5.409c-.444-.858-1.755-.87-2.22-.022M153.351 45.629l-2.925 5.352c-.185.337-.535.568-.94.619l-6.412.798c-1.016.127-1.435 1.28-.708 1.951l4.583 4.235c.29.266.418.647.345 1.02l-1.162 5.902c-.185.936.868 1.661 1.782 1.227L153.672 64c.363-.173.793-.168 1.152.011l5.694 2.85c.902.452 1.972-.253 1.81-1.193l-1.025-5.925c-.065-.372.072-.75.368-1.011l4.68-4.142c.743-.657.351-1.818-.662-1.965l-6.393-.927c-.403-.058-.748-.296-.924-.637l-2.801-5.409c-.444-.858-1.755-.87-2.22-.022"/>
    </g>
</svg>
