<svg xmlns="http://www.w3.org/2000/svg" width="68" height="82" viewBox="0 0 68 82">
    <g fill="none" fill-rule="evenodd">
        <path fill="#0989D2" d="M44 71.5C44 65.7 39.3 61 33.5 61S23 65.7 23 71.5 27.7 82 33.5 82 44 77.3 44 71.5z"/>
        <path fill="#2B76D4" d="M33.153 61c-1.097 0-2.155.159-3.153.452 4.453 1.307 7.695 5.31 7.695 10.048 0 4.737-3.242 8.74-7.695 10.048.998.293 2.056.452 3.153.452C39.143 82 44 77.3 44 71.5S39.144 61 33.153 61z"/>
        <path fill="#0989D2" d="M34.182 11.881c-3.249.653-6.41-1.45-7.063-4.7-.653-3.247 1.451-6.41 4.7-7.062 3.247-.653 6.41 1.45 7.062 4.7.653 3.247-1.451 6.41-4.699 7.062z"/>
        <path fill="#2B76D4" d="M39.882 4.819c-.648-3.25-3.788-5.353-7.013-4.7-.3.06-.59.144-.869.245 1.883.694 3.373 2.33 3.797 4.455.588 2.945-1.076 5.82-3.796 6.817.995.367 2.1.471 3.215.245 3.225-.652 5.314-3.814 4.666-7.062z"/>
        <path fill="#0989D2" d="M59.68 69H8.32C3.726 69 0 65.331 0 60.806c0-2.505 1.151-4.876 3.132-6.45l1.65-1.31c3.816-3.031 6.035-7.6 6.035-12.429v-8.611C10.817 19.3 21.275 9 34.177 9c12.901 0 23.36 10.3 23.36 23.006v8.77c0 4.737 2.136 9.23 5.83 12.265l1.607 1.319C66.892 55.934 68 58.265 68 60.723v.083C68 65.331 64.275 69 59.68 69z"/>
    </g>
</svg>
