<svg xmlns="http://www.w3.org/2000/svg" width="21" height="20" viewBox="0 0 21 20">
    <path fill="#FFF" fill-rule="evenodd" d="M9.637.571L7.153 5.437c-.157.306-.454.517-.797.563l-5.444.726C.05 6.84-.307 7.889.311 8.499l3.89 3.85c.247.242.355.589.293.927l-.986 5.366c-.157.85.737 1.51 1.512 1.115l4.889-2.485c.308-.157.673-.153.978.01l4.834 2.59c.766.411 1.674-.23 1.536-1.083l-.87-5.387c-.055-.339.062-.682.312-.92l3.974-3.765c.63-.597.298-1.652-.562-1.786l-5.427-.843c-.342-.053-.635-.27-.785-.579L11.521.592c-.377-.78-1.49-.792-1.884-.02"/>
</svg>
