<svg xmlns="http://www.w3.org/2000/svg" width="32" height="28" viewBox="0 0 32 28">
    <g fill="#FFF" fill-rule="evenodd">
        <path d="M18.49 11.912c1.603 1.608 1.603 4.215 0 5.823-1.601 1.608-4.199 1.608-5.801 0-1.602-1.608-1.602-4.215 0-5.823 1.602-1.608 4.2-1.608 5.802 0"/>
        <path fill-rule="nonzero" d="M28 4h-2.764l-2-4H8.762l-2 4.002-2.759.005C1.804 4.01.013 5.804.011 8.005L0 23.999C0 26.205 1.794 28 4 28h24c2.206 0 4-1.794 4-4V8c0-2.206-1.794-4-4-4zM16 23c-4.412 0-8-3.589-8-8s3.588-8 8-8c4.41 0 8 3.589 8 8s-3.59 8-8 8z"/>
    </g>
</svg>
