<svg xmlns="http://www.w3.org/2000/svg" width="24" height="44" viewBox="0 0 24 44">
    <g fill="none" fill-rule="evenodd">
        <path fill="#FFF" d="M12.172 1.352l2.216 4.49c.186.377.546.639.963.7l4.954.72c1.05.152 1.469 1.442.71 2.182l-3.585 3.494c-.302.294-.44.718-.368 1.133l.846 4.934c.18 1.046-.918 1.843-1.857 1.35l-4.43-2.33c-.374-.196-.82-.196-1.192 0L6 20.355c-.94.493-2.037-.304-1.858-1.35l.847-4.934c.07-.415-.067-.839-.369-1.133L1.035 9.444c-.76-.74-.34-2.03.709-2.183l4.954-.72c.417-.06.777-.322.964-.7l2.215-4.489c.47-.95 1.826-.95 2.295 0z" transform="translate(.32 .149)"/>
        <g>
            <path fill="#0989D2" d="M16.574 31.004v-3.388c0-.354-.287-.641-.641-.641H4.148c-.354 0-.642.287-.642.641v3.388c0 .354.288.641.642.641h11.785c.354 0 .641-.287.641-.641z" transform="translate(.32 .149) translate(4.685 11.33)"/>
            <path fill="#0989D2" d="M16.574 27.616v3.387c0 .355-.287.642-.641.642h-1.806c.354 0 .64-.287.64-.642v-3.387c0-.354-.286-.641-.64-.641h1.806c.354 0 .641.287.641.641z" transform="translate(.32 .149) translate(4.685 11.33)"/>
            <path fill="#FFF" d="M13.624 26.975H4.936V25.367c0-.622-.253-1.218-.7-1.65l-2.426-2.64C.89 20.077.351 18.782.29 17.423L.077 12.71c-.022-.48.362-.881.843-.881.85 0 1.616.509 1.946 1.292l.366 1.114c.1.305.411.488.727.427.299-.057.516-.32.517-.624l.04-12.268c0-.926.72-1.715 1.645-1.748.971-.034 1.77.743 1.77 1.707v6.479c0-.964.798-1.741 1.77-1.707.925.033 1.646.822 1.646 1.748v1.24c0-.964.798-1.741 1.77-1.707.925.033 1.645.822 1.645 1.748v1.708c0-.964.799-1.742 1.77-1.707.926.033 1.646.822 1.646 1.748v6.65c0 1.169-.362 2.31-1.035 3.265l-.974 1.383c-.673.956-1.034 2.096-1.034 3.265v1.133h-1.511z" transform="translate(.32 .149) translate(4.685 11.33)"/>
        </g>
        <path fill="#0989D2" d="M23.502 26.897V22.61c0-1.293-.994-2.341-2.262-2.386-.418-.015-.823.078-1.181.268-.134-.892-.749-1.618-1.573-1.896l-.795-4.632c-.035-.208.034-.42.185-.567l3.584-3.494c.527-.514.713-1.267.486-1.967-.227-.7-.821-1.2-1.55-1.306l-4.953-.72c-.209-.03-.39-.161-.483-.35l-2.215-4.49C12.419.41 11.76 0 11.025 0c-.736 0-1.396.41-1.721 1.07l-.586 1.187c-.156.316-.026.7.29.856.316.156.7.026.856-.29l.586-1.188c.11-.224.325-.357.574-.357.25 0 .465.133.575.357l2.216 4.49c.28.566.82.958 1.444 1.049l4.954.72c.247.036.44.199.518.436.077.237.016.483-.163.657l-3.584 3.494c-.453.441-.659 1.076-.552 1.698l.748 4.36c-.225.056-.44.143-.64.262-.313-.903-1.15-1.573-2.131-1.608-.407-.015-.802.074-1.154.254V13.06c0-.642-.255-1.242-.717-1.688-.462-.446-1.071-.68-1.715-.657-1.268.045-2.261 1.094-2.261 2.384l-.016 5.195-2.845 1.496c-.221.116-.474.098-.675-.049-.202-.146-.297-.38-.255-.627l.846-4.934c.107-.622-.1-1.257-.552-1.698L1.48 8.987c-.178-.174-.239-.42-.162-.657.077-.237.27-.4.518-.436l4.954-.72c.625-.09 1.165-.483 1.444-1.05l.316-.64c.156-.316.026-.699-.29-.855-.317-.156-.7-.026-.856.29l-.316.64c-.093.19-.273.32-.482.35l-4.954.72C.924 6.735.33 7.235.102 7.935c-.226.7-.04 1.454.486 1.967l3.585 3.494c.151.148.22.36.185.568l-.847 4.934c-.124.725.168 1.444.764 1.876.336.245.73.369 1.126.369.304 0 .611-.074.894-.223l2.247-1.18-.017 5.626-.366-1.114-.019-.05c-.43-1.021-1.426-1.682-2.535-1.682-.403 0-.793.167-1.071.458-.279.291-.428.69-.41 1.092l.213 4.71c.068 1.508.668 2.95 1.688 4.06l2.426 2.64c.008.01.017.02.027.028.32.31.505.743.505 1.19v.969h-.15c-.706 0-1.28.574-1.28 1.28v3.387c0 .706.574 1.28 1.28 1.28h11.785c.706 0 1.28-.574 1.28-1.28v-3.387c0-.706-.574-1.28-1.28-1.28h-.16v-.494c0-1.043.318-2.045.919-2.898l.974-1.383c.616-.875 1.002-1.901 1.115-2.966.038-.351-.216-.666-.567-.703-.352-.038-.666.217-.703.568-.09.849-.398 1.667-.89 2.366l-.974 1.382c-.753 1.07-1.15 2.326-1.15 3.634v.494H10.26v-.97c0-.784-.321-1.546-.882-2.094l-2.413-2.627c-.818-.89-1.298-2.045-1.353-3.253l-.212-4.711c-.004-.076.034-.127.056-.15.023-.024.072-.064.148-.064.586 0 1.113.344 1.349.88l.356 1.087c.2.608.825.976 1.454.855.598-.115 1.034-.64 1.036-1.25l.04-12.27c0-.59.461-1.088 1.029-1.109.294-.01.57.096.781.3.211.203.327.476.327.769l.003 12.446c0 .353.286.639.639.639.353 0 .639-.286.639-.64v-6.022c.013-.272.126-.523.324-.714.21-.203.49-.309.781-.299.568.02 1.03.518 1.03 1.11l.001 5.926c0 .353.286.639.64.639.352 0 .638-.286.638-.64V20.79c.008-.281.122-.543.325-.739.21-.203.488-.309.782-.299.567.02 1.03.518 1.03 1.11l-.007 4.645c0 .353.286.639.64.639.352 0 .638-.286.638-.64l.006-2.937c0-.293.116-.566.327-.77.21-.202.488-.308.782-.298.567.02 1.029.518 1.029 1.109v4.288c0 .353.286.64.639.64.353 0 .639-.287.639-.64zm-2.881 12.05v3.387l-.003.002-11.787-.002.002-3.39 11.788.003z" transform="translate(.32 .149)"/>
    </g>
</svg>
