<svg xmlns="http://www.w3.org/2000/svg" width="26" height="27" viewBox="0 0 26 27">
    <g fill="#4A4A4A" fill-rule="evenodd">
        <path fill-rule="nonzero" d="M22.608 25.534H2.926C1.312 25.534 0 24.222 0 22.608V5.053C0 3.44 1.312 2.128 2.926 2.128h19.682c1.614 0 2.926 1.311 2.926 2.925v17.555c0 1.614-1.312 2.926-2.926 2.926zM2.926 3.724c-.733 0-1.33.596-1.33 1.33v17.554c0 .733.597 1.33 1.33 1.33h19.682c.733 0 1.33-.597 1.33-1.33V5.053c0-.733-.597-1.33-1.33-1.33H2.926z" transform="translate(.009 .64)"/>
        <path d="M24.736 10.148H.798c-.44 0-.798-.367-.798-.818 0-.452.357-.819.798-.819h23.938c.44 0 .798.367.798.819 0 .451-.358.818-.798.818zM6.056 6.383c-.452 0-.818-.357-.818-.797V.798c0-.44.366-.798.818-.798.452 0 .818.357.818.798v4.788c0 .44-.366.797-.818.797zM19.478 6.383c-.452 0-.819-.357-.819-.797V.798c0-.44.367-.798.819-.798.451 0 .818.357.818.798v4.788c0 .44-.367.797-.818.797z" transform="translate(.009 .64)"/>
    </g>
</svg>
