<svg xmlns="http://www.w3.org/2000/svg" width="24" height="18" viewBox="0 0 24 18">
    <path d="M21.425.292H2.393c-1.05 0-1.904.854-1.904 1.903v13.323c0 1.05.854 1.903 1.904 1.903h19.032c1.05 0 1.903-.854 1.903-1.903V2.195c0-1.05-.854-1.903-1.903-1.903zm-19.032.952h19.032c.07 0 .132.025.197.04-1.647 1.508-7.11 6.506-9.023 8.229-.15.134-.39.295-.69.295-.3 0-.541-.16-.691-.296-1.912-1.722-7.376-6.72-9.023-8.228.066-.015.127-.04.198-.04zM1.44 15.518V2.195c0-.093.028-.178.053-.263 1.261 1.154 5.074 4.642 7.546 6.89-2.464 2.116-6.278 5.732-7.549 6.944-.022-.081-.05-.16-.05-.248zm19.984.951H2.393c-.076 0-.144-.026-.215-.043 1.314-1.252 5.151-4.888 7.572-6.96l.83.753c.393.354.852.54 1.329.54.476 0 .935-.186 1.327-.54l.832-.752c2.42 2.07 6.257 5.706 7.571 6.959-.07.017-.138.043-.214.043zm.951-.951c0 .088-.028.167-.05.248-1.272-1.213-5.084-4.828-7.548-6.944 2.472-2.248 6.283-5.735 7.545-6.89.025.085.053.17.053.263v13.323z"/>
</svg>
