<svg xmlns="http://www.w3.org/2000/svg" width="24" height="17" viewBox="0 0 24 17">
    <g fill="#6E6E6E" fill-rule="evenodd">
        <path d="M11.42 4.894c-1.8 0-3.263 1.463-3.263 3.263 0 1.8 1.462 3.262 3.262 3.262s3.263-1.462 3.263-3.262-1.463-3.263-3.263-3.263z" transform="matrix(1 0 0 -1 .214 16.424)"/>
        <path fill-rule="nonzero" d="M11.42 0C6.228 0 1.795 3.382 0 8.157c1.796 4.774 6.229 8.156 11.42 8.156 5.195 0 9.623-3.382 11.418-8.156C21.043 3.382 16.615 0 11.42 0zm0 13.594c-2.866 0-5.191-2.436-5.191-5.437 0-3.002 2.325-5.438 5.19-5.438s5.19 2.436 5.19 5.438c0 3.001-2.325 5.437-5.19 5.437z" transform="matrix(1 0 0 -1 .214 16.424)"/>
    </g>
</svg>
