<svg xmlns="http://www.w3.org/2000/svg" width="41" height="37" viewBox="0 0 41 37">
    <g fill="none" fill-rule="evenodd">
        <path fill="#0989D2" d="M16.551 28.001L15.52 32.048 12.057 34.953 12.057 35.575 20.072 35.575 28.087 35.575 28.087 34.953 24.623 32.048 23.593 28.001 20.072 27.95z" transform="translate(.426 .34)"/>
        <path fill="#0989D2" d="M12.057 35.074L12.057 35.697 20.072 35.697 28.087 35.697 28.087 35.074zM2.136 0h35.767c1.175 0 2.137.961 2.137 2.137v22.032H0V2.137C0 .96.961 0 2.137 0z" transform="translate(.426 .34)"/>
        <path fill="#FFF" d="M38.234 22.912V2.33c0-.375-.311-.686-.685-.686H1.782c-.375 0-.686.311-.686.686v20.582h37.138z" transform="translate(.426 .34)"/>
        <path fill="#0989D2" d="M40.006 24.113v2.29c0 1.153-1.058 2.095-2.353 2.095h-35.3C1.06 28.498 0 27.556 0 26.404v-2.29h40.006zM19.698 5.491c2.156 0 4.108.874 5.52 2.286 1.412 1.413 2.286 3.365 2.286 5.52 0 2.156-.874 4.107-2.286 5.52-1.412 1.412-3.364 2.286-5.52 2.286-2.155 0-4.107-.874-5.52-2.286-1.412-1.413-2.286-3.364-2.286-5.52 0-2.155.874-4.107 2.286-5.52 1.413-1.412 3.365-2.286 5.52-2.286zm6.11 11.841c.043.024.073.063.085.108.763-1.139 1.22-2.498 1.255-3.963h-2.954c-.023 1.07-.236 2.138-.637 3.137.902.172 1.685.411 2.25.718zm-.071.332c-.033.003-.067-.004-.099-.02-.552-.3-1.326-.532-2.223-.697-.08.179-.168.355-.261.53-.702 1.305-1.76 2.45-3.17 3.266 1.944-.073 3.698-.891 4.984-2.177.28-.28.536-.581.769-.902zm-6.324 3.08c-1.411-.817-2.468-1.962-3.17-3.268-.093-.173-.18-.348-.26-.527-.896.165-1.67.397-2.226.694-.031.017-.065.023-.097.02.232.322.49.623.77.903 1.285 1.286 3.04 2.104 4.983 2.177zm-5.91-3.304c.013-.045.043-.085.088-.108.569-.305 1.35-.543 2.25-.715-.402-1-.615-2.069-.638-3.14h-2.954c.034 1.465.492 2.825 1.255 3.963zm-1.254-4.317h2.953c.02-1.16.263-2.314.727-3.382-.932-.172-1.743-.414-2.33-.726-.82 1.167-1.315 2.58-1.35 4.108zm1.563-4.396c.572.295 1.362.523 2.27.684.055-.115.114-.23.175-.342.702-1.29 1.753-2.416 3.153-3.218-1.943.074-3.696.892-4.981 2.177-.22.22-.426.453-.617.7zm6.175-2.876c1.4.802 2.45 1.928 3.152 3.218.062.113.121.228.177.344.91-.161 1.7-.39 2.268-.686-.19-.246-.397-.48-.617-.7-1.285-1.285-3.037-2.103-4.98-2.177zm5.81 3.164c-.583.314-1.393.557-2.328.73.463 1.067.705 2.22.726 3.378h2.953c-.035-1.527-.53-2.94-1.35-4.108zm-5.921-2.82V9.7c1.067-.007 2.127-.083 3.076-.228-.04-.08-.08-.158-.123-.235-.66-1.214-1.645-2.278-2.953-3.043zm0 3.86v3.067h3.966c-.021-1.138-.265-2.272-.732-3.317-.997.16-2.113.243-3.234.25zm0 3.422v2.81c1.155.007 2.305.095 3.325.264.403-.977.616-2.024.64-3.074h-3.965zm0 3.164v3.757c1.316-.78 2.306-1.86 2.967-3.09.075-.139.145-.28.212-.423-.976-.156-2.074-.237-3.18-.244zm-.355 3.757V16.64c-1.104.008-2.202.09-3.178.246.066.142.137.283.211.421.661 1.23 1.65 2.31 2.967 3.09zm0-4.112v-2.809h-3.965c.023 1.051.237 2.1.641 3.077 1.021-.17 2.17-.259 3.324-.268zm0-3.163v-3.067c-1.12-.01-2.235-.093-3.233-.253-.468 1.045-.712 2.18-.733 3.32h3.966zm0-3.422V6.195c-1.308.766-2.293 1.829-2.953 3.043-.042.077-.083.155-.122.233.95.145 2.01.222 3.075.23z" transform="translate(.426 .34)"/>
    </g>
</svg>
