<svg xmlns="http://www.w3.org/2000/svg" width="33" height="33" viewBox="0 0 33 33">
    <g fill="#0989D2" fill-rule="evenodd">
        <path d="M29.241.851h-15.78c-2.267 0-4.11 1.795-4.11 4.002v5.277h2.981V4.853c0-.606.506-1.099 1.129-1.099h15.78c.623 0 1.13.493 1.13 1.1v24.995c0 .606-.507 1.1-1.13 1.1h-15.78c-.623 0-1.129-.494-1.129-1.1v-5.277h-2.98v5.277c0 2.207 1.842 4.002 4.109 4.002h15.78c2.266 0 4.11-1.795 4.11-4.002V4.853c0-2.207-1.844-4.002-4.11-4.002z" transform="translate(-.351 -.851)"/>
        <path d="M13.963 21.884L16.034 23.851 22.351 17.851 16.034 11.851 13.963 13.818 16.745 16.46 0.351 16.46 0.351 19.242 16.745 19.242z" transform="translate(-.351 -.851)"/>
    </g>
</svg>
