<svg xmlns="http://www.w3.org/2000/svg" width="18" height="23" viewBox="0 0 18 23">
    <g fill-rule="evenodd">
        <path d="M8.432 16.22c.373 0 .676-.284.676-.634v-2.622c0-.35-.303-.633-.676-.633-.374 0-.677.283-.677.633v2.622c0 .35.303.633.677.633z" transform="translate(.752 .555)"/>
        <path fill-rule="nonzero" d="M16.187 6.943h-3.203V3.86C12.984 1.73 10.942 0 8.432 0S3.879 1.731 3.879 3.86v3.083H.677c-.374 0-.677.284-.677.633v8.096c0 3.272 2.846 5.935 6.344 5.935h4.175c3.499 0 6.345-2.663 6.345-5.935V7.576c0-.35-.304-.633-.677-.633zM5.233 3.86c0-1.43 1.435-2.594 3.199-2.594 1.764 0 3.199 1.164 3.199 2.594v3.083H5.233V3.86zM15.51 15.672c0 2.574-2.239 4.669-4.99 4.669H6.343c-2.752 0-4.99-2.095-4.99-4.67V8.21H15.51v7.463z" transform="translate(.752 .555)"/>
    </g>
</svg>
