<svg xmlns="http://www.w3.org/2000/svg" width="17" height="16" viewBox="0 0 17 16">
    <path fill="#9B9B9B" d="M16.167 14.392l-3.725-3.726c.923-1.126 1.48-2.568 1.48-4.14 0-3.605-2.926-6.53-6.531-6.53C3.782-.005.86 2.92.86 6.525c0 3.606 2.922 6.531 6.53 6.531 1.573 0 3.012-.553 4.138-1.477l3.725 3.723c.253.253.661.253.914 0 .254-.25.254-.661 0-.911zm-8.776-2.635c-2.888 0-5.235-2.346-5.235-5.23 0-2.885 2.347-5.235 5.235-5.235 2.884 0 5.234 2.35 5.234 5.234 0 2.885-2.35 5.231-5.234 5.231z"/>
</svg>
