<svg xmlns="http://www.w3.org/2000/svg" width="16" height="17" viewBox="0 0 16 17">
    <g fill="#FF4A49" fill-rule="evenodd">
        <path d="M14.975 2.512c0 1.214-1.043 2.198-2.33 2.198-1.286 0-2.33-.984-2.33-2.198S11.36.314 12.646.314c1.287 0 2.33.984 2.33 2.198z" transform="translate(0 .816)"/>
        <path d="M12.479 5.338c-1.56 0-2.829-1.197-2.829-2.67C9.65 1.199 10.92 0 12.48 0c1.56 0 2.828 1.197 2.828 2.669S14.04 5.338 12.48 5.338zm0-4.337c-.975 0-1.768.749-1.768 1.668 0 .92.793 1.668 1.768 1.668s1.768-.749 1.768-1.668c0-.92-.793-1.668-1.768-1.668zM14.975 13.188c0 1.214-1.043 2.198-2.33 2.198-1.286 0-2.33-.984-2.33-2.198s1.044-2.198 2.33-2.198c1.287 0 2.33.984 2.33 2.198z" transform="translate(0 .816)"/>
        <path d="M12.479 15.7c-1.56 0-2.829-1.197-2.829-2.669s1.269-2.669 2.829-2.669c1.56 0 2.828 1.197 2.828 2.669S14.04 15.7 12.48 15.7zm0-4.337c-.975 0-1.768.749-1.768 1.668 0 .92.793 1.668 1.768 1.668s1.768-.749 1.768-1.668c0-.92-.793-1.668-1.768-1.668zM4.992 7.85c0 1.214-1.043 2.198-2.33 2.198-1.286 0-2.33-.984-2.33-2.198s1.044-2.198 2.33-2.198c1.287 0 2.33.984 2.33 2.198z" transform="translate(0 .816)"/>
        <path d="M2.828 10.362C1.268 10.362 0 9.165 0 7.693s1.269-2.669 2.828-2.669c1.56 0 2.83 1.197 2.83 2.669s-1.27 2.669-2.83 2.669zm0-4.337c-.975 0-1.767.748-1.767 1.668 0 .92.792 1.668 1.767 1.668.976 0 1.768-.749 1.768-1.668 0-.92-.792-1.668-1.768-1.668z" transform="translate(0 .816)"/>
        <path d="M4.37 7.536c-.247 0-.487-.117-.617-.326-.193-.31-.074-.704.265-.881l6.57-3.418c.34-.177.772-.069.966.242.194.31.075.704-.265.881L4.72 7.451c-.11.058-.23.085-.35.085zM10.938 12.874c-.119 0-.24-.027-.35-.085l-6.57-3.417c-.34-.176-.458-.571-.265-.881.193-.31.626-.42.966-.242l6.57 3.417c.34.177.459.572.265.882-.13.209-.37.326-.616.326z" transform="translate(0 .816)"/>
    </g>
</svg>
