<svg xmlns="http://www.w3.org/2000/svg" width="16" height="22" viewBox="0 0 16 22">
    <g fill="none" fill-rule="evenodd">
        <path fill="#F8FBFF" d="M8.004 22c-.122 0-.243-.043-.345-.13l-5.212-4.451c-.865-.738-1.51-1.728-1.92-2.943C.178 13.437 0 12.23 0 10.886V3.297c0-.229.107-.44.282-.556C2.932.988 5.523.067 7.987.004c2.666-.07 5.277.86 7.762 2.76.157.12.251.32.251.533v7.591c0 1.343-.177 2.55-.527 3.589-.408 1.213-1.054 2.203-1.917 2.941L8.348 21.87c-.102.087-.223.131-.344.131z"/>
        <path fill="#7ED321" d="M8.003 17c-.124 0-.247-.04-.351-.118L3.85 13.993C2.64 13.073 2 11.562 2 9.621V4.306c0-.207.11-.4.288-.504 1.956-1.153 3.874-1.758 5.699-1.8 1.98-.045 3.916.567 5.757 1.82.16.109.256.29.256.484v5.317c0 1.94-.64 3.45-1.848 4.37l-3.798 2.889c-.104.079-.228.118-.351.118z"/>
        <path fill="#FFF" d="M6.878 13h-.004c-.065-.001-.126-.028-.17-.073l-2.438-2.555C4.08 10.179 3.987 9.93 4 9.67c.015-.274.151-.54.373-.729.436-.37 1.07-.343 1.474.064l1.102 1.108 3.242-3.819c.194-.189.454-.294.73-.295h.058c.282 0 .482.103.695.307.423.404.435 1.032.027 1.43l-4.656 5.196C7 12.976 6.94 13 6.878 13z"/>
    </g>
</svg>
