<svg xmlns="http://www.w3.org/2000/svg" width="10" height="10" viewBox="0 0 10 10">
    <path fill="#FFF" fill-rule="evenodd" d="M4.719.309L3.575 2.567c-.072.143-.21.24-.367.262L.7 3.166c-.397.053-.56.54-.277.823l1.792 1.787c.113.112.163.273.135.43l-.455 2.491c-.072.395.34.701.697.518l2.25-1.154c.143-.073.31-.07.451.005L7.52 9.269c.353.19.77-.107.707-.504l-.4-2.5c-.026-.157.028-.317.143-.427L9.8 4.09c.29-.277.137-.767-.259-.829L7.042 2.87c-.157-.025-.292-.125-.36-.27L5.585.319C5.413-.044 4.9-.049 4.72.308"/>
</svg>
