<svg xmlns="http://www.w3.org/2000/svg" width="25" height="23" viewBox="0 0 25 23">
    <path fill="#323232" stroke="#FFF" stroke-width=".5" d="M20.609 14.588c-1.284-1.177-2.812-2.048-4.479-2.575 1.786-1.128 2.959-3.014 2.959-5.147 0-3.444-3.057-6.246-6.814-6.246S5.461 3.422 5.461 6.866c0 2.133 1.173 4.02 2.959 5.147-1.667.527-3.195 1.398-4.479 2.575C1.715 16.628.49 19.34.49 22.227h1.842c0-5.026 4.46-9.116 9.944-9.116 5.483 0 9.944 4.09 9.944 9.116h1.842c0-2.886-1.226-5.599-3.452-7.64zm-8.334-3.165c-2.742 0-4.972-2.044-4.972-4.557 0-2.514 2.23-4.558 4.972-4.558 2.742 0 4.972 2.044 4.972 4.558 0 2.513-2.23 4.557-4.972 4.557z"/>
</svg>
