<svg xmlns="http://www.w3.org/2000/svg" width="55" height="60" viewBox="0 0 55 60">
    <g fill="#EEF3F7" fill-rule="evenodd">
        <path d="M54.69 13.247l-.079-1.87-1.856-.19c-7.13-.734-13.26-3.402-17.146-5.51C31.35 3.367 28.77 1.2 28.747 1.18L27.354 0l-1.395 1.179c-.025.021-2.606 2.188-6.863 4.497C15.21 7.785 9.08 10.453 1.95 11.186l-1.857.192-.079 1.869c-.014.334-.312 8.306 2.75 17.959 1.808 5.696 4.418 10.8 7.758 15.17 4.194 5.488 9.544 9.813 15.9 12.857l.93.445.93-.445c6.357-3.044 11.707-7.37 15.9-12.857 3.341-4.37 5.951-9.474 7.758-15.17 3.063-9.653 2.765-17.624 2.75-17.96zM27.353 54.869C22.05 52.167 17.561 48.45 14 43.812c-3.033-3.951-5.415-8.588-7.078-13.78-2.033-6.347-2.489-12.007-2.581-14.786 2.86-.426 5.75-1.143 8.62-2.138 2.806-.972 5.598-2.212 8.3-3.685C24 7.928 26.085 6.5 27.351 5.567c1.266.933 3.352 2.361 6.093 3.856 2.701 1.473 5.494 2.713 8.299 3.685 2.87.996 5.763 1.712 8.623 2.138-.089 2.752-.536 8.332-2.54 14.649-1.655 5.218-4.034 9.878-7.07 13.85-3.57 4.67-8.076 8.409-13.405 11.124z"/>
        <path d="M37.529 19.893L34.732 22.437 24.308 31.918 19.025 27.113 18.307 26.459 16.89 27.749 16.89 27.749 15.472 29.038 24.308 37.075 40.364 22.471z"/>
    </g>
</svg>
