<svg xmlns="http://www.w3.org/2000/svg" width="17" height="18" viewBox="0 0 17 18">
    <g fill="none" fill-rule="evenodd" transform="translate(.617 .816)">
        <path fill="#FF4A49" d="M8.157 0C3.648 0 0 3.648 0 8.157c0 4.508 3.648 8.156 8.157 8.156 4.508 0 8.156-3.648 8.156-8.156C16.313 3.648 12.665 0 8.157 0z"/>
        <path fill="#FFF" d="M8.157 4.106c-.352 0-.638.286-.638.637v4.104c0 .352.286.637.638.637.352 0 .637-.285.637-.637V4.743c0-.351-.285-.637-.637-.637z"/>
        <circle cx="8.157" cy="11.125" r="1" fill="#FFF"/>
    </g>
</svg>
